# xmcd
#
# Track frame offsets:
#	150
#	27051
#	74120
#	125218
#	155672
#
# Disc length: 2473 seconds
#
# Revision: 1
# Processed by: cddbd v1.5.2PL0 Copyright (c) Steve Scherf et al.
# Submitted via: audiograbber 1.83.01
#
DISCID=4809a705
DTITLE=Saron Crenshaw - Drivin`CD 2
DYEAR=1900
DGENRE=
TTITLE0=Jailer blues
TTITLE1=Feel like crying
TTITLE2=Memories
TTITLE3=Betty lane
TTITLE4=I hear the music
EXTD=
EXTT0=
EXTT1=
EXTT2=
EXTT3=
EXTT4=
PLAYORDER=
